Patient4_TMGait_0pt6_01_right_38_EMG.mot
version=1
nRows=30
nColumns=33
inDegrees=no
endheader
time	1LAddLong	2LGlutMax	3LGlutMed	4LIliopsoas	5LSemiMemb	6LBicFemLong	7LRecFem	8LVastMed	9LVastLat	10LGasMed	11LTibAnt	12lTibPost	13LPeroneusLong	14LSol	15LExtDigLong	16LFlexDigLong	17RAddLong	18RGlutMax	19RGlutMed	20RIliopsoas	21RSemiMemb	22RBicFemLong	23RRecFem	24RVastMed	25RVastLat	26RGasMed	27RTibAnt	28RTibPost	29RPeroneusLong	30RSol	31RExtDigLong	32RFlexDigLong
46.127	0.006104	-0.5481	0.018921	0.06134	0.007935	0.002747	0.53055	-0.012207	0.12192	-0.049896	-0.080109	0.012054	0.06424	0.25772	-0.66498	0.005646	0.03891	-0.61661	-0.42206	-0.030365	-0.12421	-0.51941	0.054626	-0.17609	-0.57419	-0.009155	0.085754	-0.072021	-0.64087	0.74982	-0.003052	-0.009308
46.128	0.005035	-0.56152	0.030975	0.025177	0.011749	-0.009918	0.60272	-0.011597	0.11688	-0.02533	-0.35294	-0.001068	0.006561	0.1297	-0.39002	-0.006409	0.020752	-0.62866	-0.33218	-0.098877	-0.003662	-0.5513	0.10178	-0.31113	-0.39673	-0.00412	0.075226	-0.23285	-0.83221	-0.16007	-0.000763	-0.013275
46.129	0.002899	-0.56244	0.061493	-0.011444	0.007629	-0.019836	0.64209	-0.011292	0.10925	0.007782	-0.66025	-0.002747	-0.065613	0.040436	-0.081177	-0.007629	0.016479	-0.63446	0.10513	-0.039368	-0.013733	-0.46478	0.23178	-0.4602	-0.2298	0.032043	0.071564	0.10635	-0.73303	-0.83221	-0.003662	-0.016937
46.13	-0.00946	-0.5632	0.073395	-0.018921	-0.014648	0.012054	0.7727	-0.012665	0.103	0.000305	-0.57098	-0.002899	-0.12985	-0.002289	-0.096436	-0.014343	0.010834	-0.67047	-0.099792	0.056305	-0.27283	-0.27893	0.30716	-0.30792	-0.079498	0.040741	0.083313	-0.14008	-0.62042	-0.70358	-0.000305	-0.018158
46.131	-0.000763	-0.59174	0.06424	-0.007629	-0.004272	-0.014801	0.80261	-0.008392	0.10605	-0.063477	-0.36133	0.003662	-0.043182	0.089874	-0.11047	0.001373	-0.01358	-0.65689	-0.47272	0.090027	-0.37308	-0.29068	0.26962	-0.095978	-0.046234	0.030975	0.063477	-0.14954	-0.52414	-0.53421	-0.001221	-0.011749
46.132	-0.007935	-0.56427	0.074768	-0.006866	-0.010986	-0.007172	0.84381	0.001831	0.1088	-0.11505	0.00061	-0.000305	0.026398	0.19501	-0.61188	0.016022	-0.041351	-0.63461	-0.56854	0.074768	0.037079	-0.61371	0.31448	0.03067	0.023193	0.050507	0.024872	0.095215	0.48767	-0.36804	-0.000916	-0.025177
46.133	-0.006409	-0.50522	0.083771	-0.003052	0.014954	0.005341	0.71213	0.002899	0.10422	-0.12726	0.30472	0.002747	-0.035553	0.21866	1.1455	-0.001373	-0.022278	-0.6218	0.001068	-0.011597	0.085449	-0.79498	0.40176	0.12726	0.021057	0.051575	0.048218	0.058441	0.38742	-0.4483	-0.006866	-0.026398
46.134	0.005188	-0.40726	0.097046	-0.013885	-0.010071	0.002899	0.54871	0.011292	0.1207	-0.10712	0.17212	0.002441	-0.061493	-0.009003	-0.99884	-0.012054	0.015411	-0.63629	-0.16968	0.004883	0.01236	-0.78644	0.51239	0.062561	-0.066071	0.031433	0.086212	-0.035553	0.21545	-0.354	-0.001373	-0.022888
46.135	-0.00946	-0.35278	0.092621	-0.00061	0.007324	-0.005951	0.37827	0.013885	0.11749	-0.091248	-0.039673	0.005798	-0.075073	-0.25696	-1.0161	-0.006256	0.085144	-0.85724	-1.4848	0.055237	-0.15625	-0.79376	0.5513	-0.031738	-0.070496	0.010223	0.072937	-0.26627	-0.032654	-0.22476	-0.00351	0.003662
46.136	-0.007324	-0.32852	0.08316	0.003815	0.007324	-0.00885	0.25436	0.016022	0.11444	-0.068054	-0.19516	0.002441	-0.11749	-0.27084	-1.0373	-0.010681	0.1799	-1.0207	-1.9283	-0.015564	-0.42267	-0.47714	0.61127	-0.17746	-0.087585	-0.037537	0.066986	-0.22598	-0.1828	-0.80643	-0.00351	-0.009613
46.137	-0.017395	-0.28473	0.08728	0.013275	-0.003967	0.00946	0.25879	0.011444	0.10788	-0.016785	-0.23972	0.002899	-0.17929	-0.27023	-0.66544	0.000458	0.2269	-0.9549	-1.0593	0.02594	-0.40466	-0.36179	0.49454	-0.25757	-0.089417	-0.11353	0.046844	0.098572	-0.21332	-0.68115	-0.004578	-0.010376
46.138	-0.010223	-0.17441	0.088196	-0.002136	-0.000305	0.006561	0.19348	0.02533	0.090027	0.02533	-0.21881	0.005035	-0.16632	-0.37689	-0.49789	0.010681	0.15289	-0.89188	-0.065918	-0.024719	0.011444	-0.25589	0.43594	-0.1004	0.005798	-0.14267	0.049591	-0.11078	-0.2565	-0.93597	-0.000305	-0.012512
46.139	-0.008087	-0.096283	0.09552	-0.00412	-0.00061	0.006714	-0.095978	0.028992	0.093842	0.00885	-0.13001	-0.002899	-0.11063	-0.35416	-0.022888	0.014343	0.054932	-0.87204	0.77209	-0.058899	-0.23239	-0.040588	0.50095	-0.040894	0.001831	-0.09552	0.099792	-0.45136	-0.32989	-1.279	0.000916	-0.029297
46.14	-0.005341	-0.10025	0.085907	-0.011292	-0.006866	0.006409	-0.38834	0.013428	0.086212	-0.066528	0.020142	0.004883	-0.080109	-0.22156	0.35507	0.011444	-0.09552	-0.90408	0.59982	-0.007935	-0.40039	0.36438	0.38101	-0.056152	-0.01297	-0.049286	0.08316	0.063782	-0.28168	-1.3681	-0.002899	-0.06012
46.141	0.006409	-0.12802	0.059662	0.016937	-0.001526	-0.007935	-0.50903	0.005188	0.081177	-0.093384	0.34134	0.005951	-0.054626	-0.21378	0.39825	0.010529	-0.15213	-0.8342	-0.015106	0.041504	-0.44647	0.45364	0.35202	0.016632	-0.029449	-0.048676	0.10956	0.31296	-0.14847	-1.2083	-0.003204	-0.056152
46.142	0.01358	-0.10895	0.053711	0.028839	0.005188	0.003204	-0.51102	0.007629	0.090485	-0.080566	0.42221	0.009003	-0.12222	-0.1973	-0.076752	0.003967	-0.26688	-0.78537	0.6134	0.010071	0.37567	0.14923	0.28549	0.12711	0.018616	-0.05188	0.14435	-0.15381	-0.18601	-0.41748	-0.001831	-0.038147
46.143	0.017853	-0.15442	0.049133	0.034027	0.003052	-0.010681	-0.51682	0.011597	0.10986	-0.049438	0.3479	0.004578	-0.17303	-0.2269	0.19333	-0.008087	-0.17914	-0.94818	-0.59403	-0.025482	0.80337	-0.19882	0.26749	0.15961	0.016937	0.008087	0.098114	0.12024	-0.11231	0.69595	0	-0.031586
46.144	0.018158	-0.17227	0.035095	0.018158	0	-0.000916	-0.53345	-0.00351	0.11093	-0.051727	0.094604	0.007477	-0.17242	-0.27954	0.096283	-0.011597	-0.066376	-1.1583	-1.3597	-0.003662	0.45212	-0.32898	0.24048	0.10819	0.022278	0.080566	0.024261	0.31464	0.22064	1.4204	-0.003052	-0.021515
46.145	0.020142	-0.11963	0.016174	0.016632	0.001678	0.000916	-0.64453	0.001526	0.11398	-0.034637	-0.075531	0.006714	-0.13062	-0.25772	0.4454	-0.01297	-0.038605	-1.0092	-0.43167	-0.079041	0.22995	-0.54642	0.19531	0.094147	-0.003204	0.033569	-0.024872	-0.007324	0.23956	1.7691	0.006561	-0.017548
46.146	0.005188	-0.098114	0.03006	0.018158	0.008545	0.02182	-0.73791	-0.002747	0.11414	-0.057373	0.055389	0.009613	-0.097656	-0.13062	0.52322	-0.010681	-0.054474	-0.88745	-0.23743	-0.054169	0.13657	-0.44373	0.16037	0.071564	-0.029449	0.023499	-0.01358	-0.20706	0.25024	1.105	-0.002899	-0.02594
46.147	0.009308	-0.15732	0.007782	0.018921	0	0.009308	-0.63736	-0.003662	0.085297	-0.1178	-0.081177	0.003204	0.000458	0.009155	0.66101	-0.005951	-0.058136	-0.98282	-0.99075	0.091553	0.084839	-0.063171	0.25192	0.086517	-0.011444	0.04715	0.021362	0.27435	0.34058	0.81161	-0.001984	-0.03006
46.148	0.001526	-0.16708	0.001526	0.009003	0.008545	0.009003	-0.42374	-0.008087	0.053711	-0.10544	-0.010681	0.007477	-0.023956	0.003357	0.75104	-0.007782	-0.046997	-1.0207	-0.7428	0.11932	-0.18662	0.24658	0.3305	0.23651	0.036926	0.046844	0.032654	0.081329	0.42313	1.113	-0.003357	-0.036621
46.149	-0.00351	-0.22888	-0.014038	0.000458	-0.001221	-0.000305	-0.31433	-0.011139	0.009918	-0.068817	-0.006561	0.003204	-0.14893	-0.061798	0.16083	-0.019073	-0.048523	-0.90179	-0.46738	0.052185	-0.24872	0.2713	0.33188	0.4451	0.041046	-0.017242	0.036926	0.043945	0.29739	1.1827	0.006561	-0.037537
46.15	-0.002747	-0.24658	-0.007477	-0.022125	-0.010681	-0.010071	-0.21316	-0.017395	-0.015717	-0.067749	-0.099792	0.005035	-0.1622	-0.001831	-0.023956	-0.018921	-0.061951	-0.75653	-0.25101	0.007629	0.065918	-0.018311	0.11185	0.52109	-0.097809	0.005493	0.046997	0.00473	0.12528	0.93918	-0.00351	-0.037689
46.151	0.003815	-0.2005	-0.019989	-0.0177	-0.000153	-0.011749	-0.095367	-0.003357	-0.02533	-0.070648	-0.21881	-0.000153	-0.16037	0.023804	0.13123	-0.027008	-0.047913	-0.49225	-0.30685	0.019379	0.25101	-0.21927	0.002136	0.32516	-0.14755	0.046234	0.053253	-0.12589	0.019684	0.39032	-0.004578	-0.038757
46.152	0.007172	-0.18173	-0.028381	-0.010986	-0.009155	-0.006256	-0.092316	-0.006866	-0.036469	-0.074921	-0.1973	0.001678	-0.14038	0.087891	0.27512	-0.015717	-0.030975	-0.25269	-0.24948	0.016022	0.17288	-0.24826	0.063019	0.16922	-0.18127	0.040741	0.061188	-0.1152	-0.11932	0.27969	0	-0.040436
46.153	0.005341	-0.20477	-0.037842	-0.013123	0.000305	-0.006256	-0.059204	-0.011444	-0.041962	-0.072784	-0.12024	0.00473	-0.035553	0.1149	0.31387	-0.006104	-0.005646	-0.17716	-0.3894	0.013275	0.07843	-0.28564	0.045776	0.050659	-0.10712	0.033264	0.065308	-0.084839	-0.0914	0.25818	0.004272	-0.029144
46.154	0.010681	-0.224	-0.057983	-0.022888	0.007782	-0.021667	-0.042877	-0.028076	-0.065308	-0.075073	-0.1506	-0.001526	0.007019	0.096283	0.22461	0.001068	-0.006409	-0.12894	-0.46722	-0.029297	0.049896	-0.50583	-0.19775	0.11963	0.076294	0.00473	0.098724	0.027466	-0.040741	-0.010071	-0.005188	-0.035553
46.155	0.019836	-0.19592	-0.058136	-0.015259	0.000916	0.001526	-0.12589	-0.022125	-0.076294	-0.06958	-0.1181	-0.000153	-0.027618	0.13428	-0.15442	-0.002289	0	0.091858	0.10239	-0.034332	0.048065	-0.59372	-0.32059	0.049133	0.1004	-0.083008	0.13001	0.000763	-0.0354	-0.24307	0.000153	-0.042419
46.156	0.001526	-0.18524	-0.072784	-0.02243	-0.002289	-0.020142	-0.17532	-0.014801	-0.089417	-0.063629	-0.13794	-0.002747	-0.009613	0.10742	-0.005798	-0.01358	0.025635	0.23407	0.39063	0.036926	-0.009003	-0.68893	-0.40298	0.025024	0.097351	-0.18509	0.14297	-0.010529	-0.15335	-0.54184	-0.00351	-0.056763
